<?xml version="1.0" standalone="no"?>
<!DOCTYPE svg PUBLIC "-//W3C//DTD SVG 20010904//EN"
 "http://www.w3.org/TR/2001/REC-SVG-20010904/DTD/svg10.dtd">
<svg version="1.0" xmlns="http://www.w3.org/2000/svg"
 width="135.000000pt" height="40.000000pt" viewBox="0 0 135.000000 40.000000"
 preserveAspectRatio="xMidYMid meet">

<g transform="translate(0.000000,40.000000) scale(0.100000,-0.100000)"
fill="#000000" stroke="none">
<path d="M573 341 c-62 -45 -96 -131 -50 -131 16 1 27 12 42 43 20 43 67 79
82 63 4 -5 1 -11 -7 -14 -8 -3 -27 -18 -42 -33 -22 -22 -28 -37 -28 -72 0 -45
20 -77 66 -103 10 -7 16 -15 12 -19 -14 -14 -77 36 -90 71 -9 25 -18 34 -35
34 -30 0 -30 -22 2 -76 16 -28 39 -49 68 -63 47 -23 72 -27 62 -11 -3 6 -15
10 -26 10 -26 0 -95 64 -108 100 -15 46 10 38 32 -9 12 -28 30 -46 60 -60 l42
-21 4 22 c2 14 -4 27 -15 33 -77 44 -85 127 -17 170 33 20 46 65 19 65 -27 0
-81 -46 -101 -85 -13 -27 -21 -35 -23 -23 -8 41 47 102 113 126 30 10 30 10 4
11 -14 1 -44 -12 -66 -28z"/>
<path d="M725 354 c41 -14 99 -70 108 -104 9 -36 -11 -31 -30 7 -18 37 -73 83
-99 83 -27 0 -14 -45 19 -65 17 -11 33 -29 35 -40 4 -17 0 -16 -25 8 -39 36
-84 37 -112 1 -26 -33 -27 -65 -2 -95 25 -31 86 -32 111 -1 21 26 30 28 30 7
0 -9 -16 -25 -35 -36 -25 -15 -35 -28 -35 -45 0 -24 0 -24 37 -9 48 20 58 29
78 70 22 47 39 45 20 -2 -21 -51 -30 -59 -88 -87 -29 -14 -44 -25 -34 -26 30
0 94 38 116 69 12 16 24 43 27 60 6 28 4 31 -17 31 -18 0 -28 -9 -40 -39 -11
-25 -29 -46 -49 -56 -34 -18 -58 -10 -26 9 33 19 66 54 66 71 0 22 -43 19 -58
-5 -15 -24 -73 -27 -92 -5 -20 24 -15 67 10 87 30 24 46 23 76 -7 27 -27 64
-34 64 -11 0 20 -37 64 -60 71 -23 7 -27 25 -6 25 23 0 68 -42 82 -77 17 -40
54 -47 54 -9 0 53 -86 137 -139 135 -22 0 -20 -3 14 -15z"/>
<path d="M650 226 c-20 -25 -8 -61 22 -64 36 -4 53 26 32 56 -18 25 -37 28
-54 8z m48 -29 c4 -20 -25 -34 -40 -19 -15 15 -1 44 19 40 10 -2 19 -11 21
-21z"/>
</g>
</svg>
